<?xml version="1.0" encoding="UTF-8" standalone="no"?>
<svg
   viewBox="0 0 800 600"
   width="800"
   height="600"
   version="1.1"
   id="svg25"
   sodipodi:docname="train.svg"
   inkscape:version="1.3.2 (091e20e, 2023-11-25, custom)"
   xmlns:inkscape="http://www.inkscape.org/namespaces/inkscape"
   xmlns:sodipodi="http://sodipodi.sourceforge.net/DTD/sodipodi-0.dtd"
   xmlns="http://www.w3.org/2000/svg"
   xmlns:svg="http://www.w3.org/2000/svg"> 
  <rect
     width="86.900368%"
     height="57.318573%"
     fill="#f8f8f8"
     id="rect1"
     x="50.184505"
     y="59.778599"
     style="stroke-width:0.705762" />
  <defs
     id="defs13">
    <!-- Straight Track -->
    <g
       id="straightTrack">
      <rect
         x="0"
         y="-10"
         width="100"
         height="20"
         fill="#aaaaaa"
         id="rect2" />
      <!-- Sleepers -->
      <g
         id="g9">
        <rect
           x="3"
           y="-8"
           width="4"
           height="16"
           fill="#6b4f3a"
           id="rect3" />
        <rect
           x="18"
           y="-8"
           width="4"
           height="16"
           fill="#6b4f3a"
           id="rect4" />
        <rect
           x="33"
           y="-8"
           width="4"
           height="16"
           fill="#6b4f3a"
           id="rect5" />
        <rect
           x="48"
           y="-8"
           width="4"
           height="16"
           fill="#6b4f3a"
           id="rect6" />
        <rect
           x="65"
           y="-8"
           width="4"
           height="16"
           fill="#6b4f3a"
           id="rect7" />
        <rect
           x="78"
           y="-8"
           width="4"
           height="16"
           fill="#6b4f3a"
           id="rect8" />
        <rect
           x="93"
           y="-8"
           width="4"
           height="16"
           fill="#6b4f3a"
           id="rect9" />
      </g>
    </g>
    <!-- Curved Track (quarter circle, radius 80) -->
    <g
       id="curveTrack">
      <path
         d="M0,0 A80,80 0 0 1 80,80"
         fill="none"
         stroke="#aaaaaa"
         stroke-width="20"
         id="path9" />
      <!-- Sleepers along curve (approximate) -->
      <g
         id="g13">
        <rect
           x="78"
           y="-38"
           width="4"
           height="16"
           fill="#6b4f3a"
           transform="rotate(60 12 0)"
           id="rect10" />
        <rect
           x="4"
           y="-7"
           width="4"
           height="16"
           fill="#6b4f3a"
           transform="rotate(10 12 0)"
           id="rect29" />
        <rect
           x="30"
           y="-2"
           width="4"
           height="16"
           fill="#6b4f3a"
           transform="rotate(25 32 0)"
           id="rect11" />
        <rect
           x="66"
           y="7"
           width="4"
           height="16"
           fill="#6b4f3a"
           transform="rotate(40 52 0)"
           id="rect12" />
        <rect
           x="130"
           y="-2"
           width="4"
           height="16"
           fill="#6b4f3a"
           transform="rotate(83 68 10)"
           id="rect13" />
      </g>
    </g>
    <g
       id="detour">
      <rect
         x="0"
         y="0"
         width="40"
         height="6"
         id="rect30" />
    </g>
    <g
       id="switch">
      <rect
         id="test-status"
         x="100"
         y="100"
         width="44.845749"
         height="22.373423"
         fill="#a52a2a"
         stroke="#000000"
         style="stroke-width:0.9144"
         data-datapoint="Server1@TEST"
         data-animation="toggle_start_stop"
         command-datapoint="Server1@TEST_CMD"
         command-value="TOGGLE" />
    </g>
  </defs>
  <!-- Build Oval Circuit using straight and curve tracks -->
  <!-- Top straight -->
  <use
     href="#straightTrack"
     x="200"
     y="140"
     id="use13"
     style="fill:none;fill-opacity:1" />
  <use
     href="#straightTrack"
     x="300"
     y="140"
     id="use14" />
  <use
     href="#straightTrack"
     x="400"
     y="140"
     id="use15" />
  <use
     href="#straightTrack"
     x="500"
     y="140"
     id="use16" />
  <!-- Right curve -->
  <use
     href="#curveTrack"
     x="600"
     y="140"
     id="use18" />
  <use
     href="#curveTrack"
     x="600"
     y="220"
     transform="rotate(90,640.2214,260.2214)"
     id="use19" />
  <!-- Bottom straight -->
  <use
     href="#straightTrack"
     x="500"
     y="460"
     transform="rotate(180,550.1845,380.2952)"
     id="use20" />
  <use
     href="#straightTrack"
     x="400"
     y="460"
     transform="rotate(180,450.1845,380.2952)"
     id="use21" />
  <use
     href="#straightTrack"
     x="300"
     y="460"
     transform="rotate(180,350.1845,380.2952)"
     id="use22" />
  <use
     href="#straightTrack"
     x="200"
     y="460"
     transform="rotate(180,250.1845,380.2952)"
     id="use23" />
  <use
     href="#straightTrack"
     x="200"
     y="460"
     transform="rotate(180,297.82656,404.32841)"
     id="use23-2" />
  <use
     href="#straightTrack"
     x="200"
     y="460"
     transform="rotate(-150.87517,236.32919,391.50536)"
     id="use23-2-4"
     inkscape:transform-center-x="-104.80907"
     inkscape:transform-center-y="49.947218" />
  <use
     href="#straightTrack"
     x="200"
     y="460"
     transform="rotate(180,347.30259,404.35424)"
     id="use23-5" />
  <use
     href="#straightTrack"
     x="200"
     y="460"
     transform="rotate(148.47004,409.12942,431.58017)"
     id="use23-5-8" />
  <!-- Left curve -->
  <use
     href="#curveTrack"
     x="200"
     y="460"
     transform="rotate(180,200,380.29521)"
     id="use24" />
  <use
     href="#curveTrack"
     x="200"
     y="380"
     transform="rotate(-90,80.425568,340.16483)"
     id="use25" />
  <use
     href="#detour"
     x="530"
     y="307"
     id="right_straight_detour"
     fill="#c21e56" />
  <use
     href="#detour"
     x="212"
     y="307"
     id="left_straight_detour"
     fill="#c21e56" />
  <use
     href="#detour"
     x="205"
     y="295"
     id="left_switch_detour"
     fill="#008000"
     transform="rotate(29.268338,224.42804,319.95806)" />
  <use
     href="#detour"
     x="205"
     y="295"
     id="right_switch_detour"
     fill="#008000"
     transform="rotate(-27.121689,394.59633,-377.76471)" />
  <use
     href="#switch"
     x="205"
     y="295"
     id="switch-right"
     fill="#008000"
     transform="translate(227.00476,-138.29025)" />
  <use
     href="#switch"
     x="205"
     y="295"
     id="switch-left"
     fill="#008000"
     transform="translate(-100.11036,-140.68355)" />
  <text
     xml:space="preserve"
     style="fill:#f8f8f8;fill-opacity:1;stroke:#000000;stroke-opacity:1"
     x="207.6963"
     y="247.35692"
     id="text30"><tspan
       sodipodi:role="line"
       id="tspan30"
       x="207.6963"
       y="247.35692">Switch</tspan></text>
  <text
     xml:space="preserve"
     style="fill:#f8f8f8;fill-opacity:1;stroke:#000000;stroke-opacity:1"
     x="534.57574"
     y="247.18019"
     id="text30-7"><tspan
       sodipodi:role="line"
       id="tspan30-6"
       x="534.57574"
       y="247.18019">Switch</tspan></text>
</svg>
